<svg width="1063" height="215" viewBox="0 0 1063 215" fill="none" xmlns="http://www.w3.org/2000/svg">
<path d="M895.281 214.893V1.89331H926.643L1031.53 160.164V1.89331H1062.89V214.893H1031.53L926.643 56.4745V214.893H895.281Z" fill="#232329"/>
<path d="M723.656 214.893V1.89331H859.752V31.0329H754.574V90.7912H842.001V119.931H754.574V185.754H859.752V214.893H723.656Z" fill="#232329"/>
<path d="M648.316 214.893V1.89331H679.234V214.893H648.316Z" fill="#232329"/>
<path d="M393.703 214.893V1.89331H421.662L498.882 162.087L575.658 1.89331H603.913V214.745H574.622V69.0475L505.835 214.893H491.781L422.845 69.0475V214.893H393.703Z" fill="#232329"/>
<path d="M184.172 214.893L253.403 1.89331H297.931L367.162 214.893H335.061L271.303 20.5308H279.291L216.273 214.893H184.172ZM220.119 166.82V137.829H331.363V166.82H220.119Z" fill="#232329"/>
<path d="M0.472656 214.893V1.89331H67.1894C69.1618 1.89331 72.8107 1.94262 78.1362 2.04123C83.5604 2.13984 88.738 2.53428 93.669 3.22455C110.336 5.29539 124.34 11.2614 135.681 21.1225C147.121 30.9836 155.751 43.5072 161.569 58.6933C167.388 73.7808 170.297 90.3475 170.297 108.393C170.297 126.538 167.388 143.203 161.569 158.389C155.751 173.477 147.121 185.951 135.681 195.812C124.34 205.575 110.336 211.491 93.669 213.562C88.738 214.252 83.5604 214.647 78.1362 214.745C72.8107 214.844 69.1618 214.893 67.1894 214.893H0.472656ZM32.1298 185.458H67.1894C70.5425 185.458 74.5366 185.359 79.1718 185.162C83.8069 184.965 87.8997 184.57 91.45 183.979C102.298 181.908 111.075 177.224 117.782 169.927C124.586 162.531 129.567 153.459 132.723 142.71C135.879 131.961 137.456 120.522 137.456 108.393C137.456 95.8697 135.829 84.2829 132.575 73.6329C129.32 62.8843 124.291 53.9107 117.486 46.7121C110.78 39.4148 102.101 34.7801 91.45 32.8079C87.8997 32.1176 83.7576 31.7232 79.0238 31.6246C74.3887 31.4273 70.4438 31.3287 67.1894 31.3287H32.1298V185.458Z" fill="#232329"/>
</svg>
