<svg width="390" height="62" viewBox="0 0 390 62" fill="none" xmlns="http://www.w3.org/2000/svg">
<g clip-path="url(#clip0_153_2566)">
<mask id="path-1-inside-1_153_2566" fill="white">
<path d="M0 0H390V62H0V0Z"/>
</mask>
<path d="M0 0H390V62H0V0Z" fill="#0E0E10"/>
<path d="M-104.52 36.5V26.42H-100.628C-100.53 26.42 -100.42 26.4247 -100.299 26.434C-100.173 26.4387 -100.047 26.4527 -99.921 26.476C-99.3937 26.5553 -98.948 26.7397 -98.584 27.029C-98.2153 27.3137 -97.9377 27.673 -97.751 28.107C-97.5597 28.541 -97.464 29.0217 -97.464 29.549C-97.464 30.0717 -97.5597 30.55 -97.751 30.984C-97.9423 31.418 -98.2223 31.7797 -98.591 32.069C-98.955 32.3537 -99.3983 32.5357 -99.921 32.615C-100.047 32.6337 -100.173 32.6477 -100.299 32.657C-100.42 32.6663 -100.53 32.671 -100.628 32.671H-103.491V36.5H-104.52ZM-103.491 31.691H-100.656C-100.572 31.691 -100.474 31.6863 -100.362 31.677C-100.25 31.6677 -100.14 31.6513 -100.033 31.628C-99.6877 31.5533 -99.4053 31.411 -99.186 31.201C-98.962 30.991 -98.7963 30.7413 -98.689 30.452C-98.577 30.1627 -98.521 29.8617 -98.521 29.549C-98.521 29.2363 -98.577 28.9353 -98.689 28.646C-98.7963 28.352 -98.962 28.1 -99.186 27.89C-99.4053 27.68 -99.6877 27.5377 -100.033 27.463C-100.14 27.4397 -100.25 27.4257 -100.362 27.421C-100.474 27.4117 -100.572 27.407 -100.656 27.407H-103.491V31.691ZM-96.0708 36.5V26.42H-92.1788C-92.0808 26.42 -91.9711 26.4247 -91.8498 26.434C-91.7238 26.4387 -91.5978 26.4527 -91.4718 26.476C-90.9444 26.5553 -90.4988 26.7397 -90.1348 27.029C-89.7661 27.3137 -89.4884 27.673 -89.3018 28.107C-89.1104 28.541 -89.0148 29.0217 -89.0148 29.549C-89.0148 30.3097 -89.2154 30.97 -89.6168 31.53C-90.0181 32.09 -90.5921 32.4423 -91.3388 32.587L-91.6958 32.671H-95.0418V36.5H-96.0708ZM-89.9668 36.5L-91.9548 32.398L-90.9678 32.02L-88.7838 36.5H-89.9668ZM-95.0418 31.691H-92.2068C-92.1228 31.691 -92.0248 31.6863 -91.9128 31.677C-91.8008 31.6677 -91.6911 31.6513 -91.5838 31.628C-91.2384 31.5533 -90.9561 31.411 -90.7368 31.201C-90.5128 30.991 -90.3471 30.7413 -90.2398 30.452C-90.1278 30.1627 -90.0718 29.8617 -90.0718 29.549C-90.0718 29.2363 -90.1278 28.9353 -90.2398 28.646C-90.3471 28.352 -90.5128 28.1 -90.7368 27.89C-90.9561 27.68 -91.2384 27.5377 -91.5838 27.463C-91.6911 27.4397 -91.8008 27.4257 -91.9128 27.421C-92.0248 27.4117 -92.1228 27.407 -92.2068 27.407H-95.0418V31.691ZM-83.1577 36.71C-84.1611 36.71 -85.0081 36.4883 -85.6987 36.045C-86.3894 35.597 -86.9121 34.9787 -87.2667 34.19C-87.6214 33.4013 -87.7987 32.4913 -87.7987 31.46C-87.7987 30.4287 -87.6214 29.5187 -87.2667 28.73C-86.9121 27.9413 -86.3894 27.3253 -85.6987 26.882C-85.0081 26.434 -84.1611 26.21 -83.1577 26.21C-82.1497 26.21 -81.3027 26.434 -80.6167 26.882C-79.9261 27.3253 -79.4034 27.9413 -79.0487 28.73C-78.6894 29.5187 -78.5097 30.4287 -78.5097 31.46C-78.5097 32.4913 -78.6894 33.4013 -79.0487 34.19C-79.4034 34.9787 -79.9261 35.597 -80.6167 36.045C-81.3027 36.4883 -82.1497 36.71 -83.1577 36.71ZM-83.1577 35.723C-82.3691 35.723 -81.7111 35.5433 -81.1838 35.184C-80.6564 34.8247 -80.2621 34.3253 -80.0007 33.686C-79.7347 33.042 -79.6017 32.3 -79.6017 31.46C-79.6017 30.62 -79.7347 29.8803 -80.0007 29.241C-80.2621 28.6017 -80.6564 28.1023 -81.1838 27.743C-81.7111 27.3837 -82.3691 27.2017 -83.1577 27.197C-83.9464 27.197 -84.6021 27.3767 -85.1247 27.736C-85.6474 28.0953 -86.0417 28.597 -86.3077 29.241C-86.5691 29.8803 -86.7021 30.62 -86.7067 31.46C-86.7114 32.3 -86.5831 33.0397 -86.3217 33.679C-86.0557 34.3137 -85.6591 34.813 -85.1317 35.177C-84.6044 35.5363 -83.9464 35.7183 -83.1577 35.723ZM-77.1079 36.5V26.42H-74.0489C-73.9416 26.42 -73.7596 26.4223 -73.5029 26.427C-73.2416 26.4317 -72.9919 26.4503 -72.7539 26.483C-71.9886 26.5903 -71.3492 26.875 -70.8359 27.337C-70.3226 27.799 -69.9376 28.387 -69.6809 29.101C-69.4242 29.815 -69.2959 30.6013 -69.2959 31.46C-69.2959 32.3187 -69.4242 33.105 -69.6809 33.819C-69.9376 34.533 -70.3226 35.121 -70.8359 35.583C-71.3492 36.045 -71.9886 36.3297 -72.7539 36.437C-72.9872 36.465 -73.2369 36.4837 -73.5029 36.493C-73.7689 36.4977 -73.9509 36.5 -74.0489 36.5H-77.1079ZM-76.0439 35.513H-74.0489C-73.8576 35.513 -73.6522 35.5083 -73.4329 35.499C-73.2089 35.485 -73.0176 35.4617 -72.8589 35.429C-72.2709 35.3263 -71.7972 35.0883 -71.4379 34.715C-71.0739 34.3417 -70.8079 33.875 -70.6399 33.315C-70.4719 32.7503 -70.3879 32.132 -70.3879 31.46C-70.3879 30.7833 -70.4719 30.1627 -70.6399 29.598C-70.8079 29.0333 -71.0739 28.5667 -71.4379 28.198C-71.8019 27.8293 -72.2756 27.5937 -72.8589 27.491C-73.0176 27.4583 -73.2112 27.4373 -73.4399 27.428C-73.6639 27.414 -73.8669 27.407 -74.0489 27.407H-76.0439V35.513ZM-63.7676 36.71C-64.5376 36.71 -65.219 36.5513 -65.8116 36.234C-66.3996 35.9167 -66.8616 35.4687 -67.1976 34.89C-67.5336 34.3113 -67.7016 33.6347 -67.7016 32.86V26.427L-66.6656 26.42V32.727C-66.6656 33.2497 -66.577 33.7023 -66.3996 34.085C-66.2223 34.463 -65.9913 34.7757 -65.7066 35.023C-65.4173 35.2657 -65.1023 35.4453 -64.7616 35.562C-64.421 35.6787 -64.0896 35.737 -63.7676 35.737C-63.441 35.737 -63.1073 35.6787 -62.7666 35.562C-62.426 35.4453 -62.1133 35.2657 -61.8286 35.023C-61.544 34.7757 -61.313 34.463 -61.1356 34.085C-60.9583 33.7023 -60.8696 33.2497 -60.8696 32.727V26.42H-59.8336V32.86C-59.8336 33.6347 -60.0016 34.3113 -60.3376 34.89C-60.6736 35.464 -61.138 35.912 -61.7306 36.234C-62.3186 36.5513 -62.9976 36.71 -63.7676 36.71ZM-53.7906 36.71C-54.7939 36.71 -55.6409 36.4883 -56.3316 36.045C-57.0222 35.597 -57.5449 34.9787 -57.8996 34.19C-58.2542 33.4013 -58.4316 32.4913 -58.4316 31.46C-58.4316 30.4287 -58.2542 29.5187 -57.8996 28.73C-57.5449 27.9413 -57.0222 27.3253 -56.3316 26.882C-55.6409 26.434 -54.7939 26.21 -53.7906 26.21C-52.6192 26.21 -51.6626 26.511 -50.9206 27.113C-50.1786 27.7103 -49.6699 28.513 -49.3946 29.521L-50.4446 29.794C-50.6592 28.996 -51.0442 28.3637 -51.5996 27.897C-52.1549 27.4303 -52.8852 27.197 -53.7906 27.197C-54.5792 27.197 -55.2349 27.3767 -55.7576 27.736C-56.2802 28.0953 -56.6746 28.597 -56.9406 29.241C-57.2019 29.8803 -57.3372 30.62 -57.3466 31.46C-57.3512 32.3 -57.2229 33.0397 -56.9616 33.679C-56.6956 34.3183 -56.2989 34.82 -55.7716 35.184C-55.2396 35.5433 -54.5792 35.723 -53.7906 35.723C-52.8852 35.723 -52.1549 35.4897 -51.5996 35.023C-51.0442 34.5517 -50.6592 33.9193 -50.4446 33.126L-49.3946 33.399C-49.6699 34.407 -50.1786 35.212 -50.9206 35.814C-51.6626 36.4113 -52.6192 36.71 -53.7906 36.71ZM-45.1691 36.5V27.407H-48.6901V26.42H-40.6191V27.407H-44.1401V36.5H-45.1691ZM-37.1177 36.5V26.42H-33.2257C-33.1277 26.42 -33.018 26.4247 -32.8967 26.434C-32.7707 26.4387 -32.6447 26.4527 -32.5187 26.476C-31.9913 26.5553 -31.5457 26.7397 -31.1817 27.029C-30.813 27.3137 -30.5353 27.673 -30.3487 28.107C-30.1573 28.541 -30.0617 29.0217 -30.0617 29.549C-30.0617 30.0717 -30.1573 30.55 -30.3487 30.984C-30.54 31.418 -30.82 31.7797 -31.1887 32.069C-31.5527 32.3537 -31.996 32.5357 -32.5187 32.615C-32.6447 32.6337 -32.7707 32.6477 -32.8967 32.657C-33.018 32.6663 -33.1277 32.671 -33.2257 32.671H-36.0887V36.5H-37.1177ZM-36.0887 31.691H-33.2537C-33.1697 31.691 -33.0717 31.6863 -32.9597 31.677C-32.8477 31.6677 -32.738 31.6513 -32.6307 31.628C-32.2853 31.5533 -32.003 31.411 -31.7837 31.201C-31.5597 30.991 -31.394 30.7413 -31.2867 30.452C-31.1747 30.1627 -31.1187 29.8617 -31.1187 29.549C-31.1187 29.2363 -31.1747 28.9353 -31.2867 28.646C-31.394 28.352 -31.5597 28.1 -31.7837 27.89C-32.003 27.68 -32.2853 27.5377 -32.6307 27.463C-32.738 27.4397 -32.8477 27.4257 -32.9597 27.421C-33.0717 27.4117 -33.1697 27.407 -33.2537 27.407H-36.0887V31.691ZM-28.6684 36.5V26.42H-27.6394V30.963H-22.0674V26.42H-21.0454V36.5H-22.0674V31.95H-27.6394V36.5H-28.6684ZM-15.0035 36.71C-16.0068 36.71 -16.8538 36.4883 -17.5445 36.045C-18.2351 35.597 -18.7578 34.9787 -19.1125 34.19C-19.4671 33.4013 -19.6445 32.4913 -19.6445 31.46C-19.6445 30.4287 -19.4671 29.5187 -19.1125 28.73C-18.7578 27.9413 -18.2351 27.3253 -17.5445 26.882C-16.8538 26.434 -16.0068 26.21 -15.0035 26.21C-13.9955 26.21 -13.1485 26.434 -12.4625 26.882C-11.7718 27.3253 -11.2491 27.9413 -10.8945 28.73C-10.5351 29.5187 -10.3555 30.4287 -10.3555 31.46C-10.3555 32.4913 -10.5351 33.4013 -10.8945 34.19C-11.2491 34.9787 -11.7718 35.597 -12.4625 36.045C-13.1485 36.4883 -13.9955 36.71 -15.0035 36.71ZM-15.0035 35.723C-14.2148 35.723 -13.5568 35.5433 -13.0295 35.184C-12.5021 34.8247 -12.1078 34.3253 -11.8465 33.686C-11.5805 33.042 -11.4475 32.3 -11.4475 31.46C-11.4475 30.62 -11.5805 29.8803 -11.8465 29.241C-12.1078 28.6017 -12.5021 28.1023 -13.0295 27.743C-13.5568 27.3837 -14.2148 27.2017 -15.0035 27.197C-15.7921 27.197 -16.4478 27.3767 -16.9705 27.736C-17.4931 28.0953 -17.8875 28.597 -18.1535 29.241C-18.4148 29.8803 -18.5478 30.62 -18.5525 31.46C-18.5571 32.3 -18.4288 33.0397 -18.1675 33.679C-17.9015 34.3137 -17.5048 34.813 -16.9775 35.177C-16.4501 35.5363 -15.7921 35.7183 -15.0035 35.723ZM-6.54603 36.5V27.407H-10.067V26.42H-1.99603V27.407H-5.51703V36.5H-6.54603ZM3.20748 36.71C2.20415 36.71 1.35715 36.4883 0.666484 36.045C-0.0241822 35.597 -0.546849 34.9787 -0.901516 34.19C-1.25618 33.4013 -1.43352 32.4913 -1.43352 31.46C-1.43352 30.4287 -1.25618 29.5187 -0.901516 28.73C-0.546849 27.9413 -0.0241822 27.3253 0.666484 26.882C1.35715 26.434 2.20415 26.21 3.20748 26.21C4.21548 26.21 5.06248 26.434 5.74848 26.882C6.43915 27.3253 6.96182 27.9413 7.31648 28.73C7.67582 29.5187 7.85548 30.4287 7.85548 31.46C7.85548 32.4913 7.67582 33.4013 7.31648 34.19C6.96182 34.9787 6.43915 35.597 5.74848 36.045C5.06248 36.4883 4.21548 36.71 3.20748 36.71ZM3.20748 35.723C3.99615 35.723 4.65415 35.5433 5.18148 35.184C5.70882 34.8247 6.10315 34.3253 6.36448 33.686C6.63048 33.042 6.76348 32.3 6.76348 31.46C6.76348 30.62 6.63048 29.8803 6.36448 29.241C6.10315 28.6017 5.70882 28.1023 5.18148 27.743C4.65415 27.3837 3.99615 27.2017 3.20748 27.197C2.41882 27.197 1.76315 27.3767 1.24048 27.736C0.717818 28.0953 0.323484 28.597 0.0574844 29.241C-0.203849 29.8803 -0.336849 30.62 -0.341516 31.46C-0.346182 32.3 -0.217849 33.0397 0.0434846 33.679C0.309484 34.3137 0.706151 34.813 1.23348 35.177C1.76082 35.5363 2.41882 35.7183 3.20748 35.723ZM13.2963 36.71C12.587 36.71 11.9477 36.5863 11.3783 36.339C10.809 36.0917 10.3237 35.7393 9.92234 35.282C9.52568 34.8247 9.22234 34.274 9.01234 33.63C8.80234 32.9813 8.69734 32.258 8.69734 31.46C8.69734 30.4053 8.87934 29.486 9.24334 28.702C9.61201 27.9133 10.1393 27.302 10.8253 26.868C11.5113 26.434 12.335 26.217 13.2963 26.217C14.3697 26.217 15.2423 26.469 15.9143 26.973C16.591 27.4723 17.0623 28.1443 17.3283 28.989L16.2923 29.241C16.073 28.625 15.7113 28.1327 15.2073 27.764C14.708 27.3953 14.085 27.211 13.3383 27.211C12.5497 27.2063 11.894 27.3837 11.3713 27.743C10.8487 28.0977 10.4543 28.597 10.1883 29.241C9.92701 29.8803 9.79401 30.62 9.78934 31.46C9.78468 32.3 9.91301 33.0397 10.1743 33.679C10.4403 34.3137 10.837 34.813 11.3643 35.177C11.8917 35.5363 12.5497 35.7183 13.3383 35.723C14.0617 35.723 14.659 35.583 15.1303 35.303C15.6017 35.023 15.9587 34.6217 16.2013 34.099C16.4487 33.5763 16.5887 32.958 16.6213 32.244H14.2973V31.362H17.6993C17.7133 31.4693 17.7203 31.5837 17.7203 31.705C17.725 31.8217 17.7273 31.9057 17.7273 31.957C17.7273 32.867 17.564 33.6813 17.2373 34.4C16.9107 35.114 16.4183 35.6787 15.7603 36.094C15.107 36.5047 14.2857 36.71 13.2963 36.71ZM19.1284 36.5V26.42H23.0204C23.1184 26.42 23.2281 26.4247 23.3494 26.434C23.4754 26.4387 23.6014 26.4527 23.7274 26.476C24.2548 26.5553 24.7004 26.7397 25.0644 27.029C25.4331 27.3137 25.7108 27.673 25.8974 28.107C26.0888 28.541 26.1844 29.0217 26.1844 29.549C26.1844 30.3097 25.9838 30.97 25.5824 31.53C25.1811 32.09 24.6071 32.4423 23.8604 32.587L23.5034 32.671H20.1574V36.5H19.1284ZM25.2324 36.5L23.2444 32.398L24.2314 32.02L26.4154 36.5H25.2324ZM20.1574 31.691H22.9924C23.0764 31.691 23.1744 31.6863 23.2864 31.677C23.3984 31.6677 23.5081 31.6513 23.6154 31.628C23.9608 31.5533 24.2431 31.411 24.4624 31.201C24.6864 30.991 24.8521 30.7413 24.9594 30.452C25.0714 30.1627 25.1274 29.8617 25.1274 29.549C25.1274 29.2363 25.0714 28.9353 24.9594 28.646C24.8521 28.352 24.6864 28.1 24.4624 27.89C24.2431 27.68 23.9608 27.5377 23.6154 27.463C23.5081 27.4397 23.3984 27.4257 23.2864 27.421C23.1744 27.4117 23.0764 27.407 22.9924 27.407H20.1574V31.691ZM27.2605 36.5L30.7325 26.42H32.0975L35.5695 36.5H34.4985L31.2015 26.994H31.6075L28.3315 36.5H27.2605ZM28.8075 34.057V33.091H34.0155V34.057H28.8075ZM36.8335 36.5V26.42H40.7255C40.8235 26.42 40.9332 26.4247 41.0545 26.434C41.1805 26.4387 41.3065 26.4527 41.4325 26.476C41.9598 26.5553 42.4055 26.7397 42.7695 27.029C43.1382 27.3137 43.4158 27.673 43.6025 28.107C43.7938 28.541 43.8895 29.0217 43.8895 29.549C43.8895 30.0717 43.7938 30.55 43.6025 30.984C43.4112 31.418 43.1312 31.7797 42.7625 32.069C42.3985 32.3537 41.9552 32.5357 41.4325 32.615C41.3065 32.6337 41.1805 32.6477 41.0545 32.657C40.9332 32.6663 40.8235 32.671 40.7255 32.671H37.8625V36.5H36.8335ZM37.8625 31.691H40.6975C40.7815 31.691 40.8795 31.6863 40.9915 31.677C41.1035 31.6677 41.2132 31.6513 41.3205 31.628C41.6658 31.5533 41.9482 31.411 42.1675 31.201C42.3915 30.991 42.5572 30.7413 42.6645 30.452C42.7765 30.1627 42.8325 29.8617 42.8325 29.549C42.8325 29.2363 42.7765 28.9353 42.6645 28.646C42.5572 28.352 42.3915 28.1 42.1675 27.89C41.9482 27.68 41.6658 27.5377 41.3205 27.463C41.2132 27.4397 41.1035 27.4257 40.9915 27.421C40.8795 27.4117 40.7815 27.407 40.6975 27.407H37.8625V31.691ZM45.2827 36.5V26.42H46.3117V30.963H51.8837V26.42H52.9057V36.5H51.8837V31.95H46.3117V36.5H45.2827ZM57.2677 36.5V32.279L53.8867 26.42H55.0767L57.7857 31.103L60.4807 26.42H61.6707L58.3037 32.279V36.5H57.2677Z" fill="#D7D0FB"/>
<g clip-path="url(#clip1_153_2566)">
<mask id="mask0_153_2566" style="mask-type:luminance" maskUnits="userSpaceOnUse" x="78" y="16" width="31" height="30">
<path d="M108.5 16H78.5V46H108.5V16Z" fill="white"/>
</mask>
<g mask="url(#mask0_153_2566)">
<path fill-rule="evenodd" clip-rule="evenodd" d="M106.841 31C107.415 31 107.972 30.9229 108.5 30.7785C108.08 30.6899 107.644 30.6433 107.198 30.6433H99.7782C98.5527 30.6433 97.4092 30.2922 96.4429 29.685C96.6541 28.4484 97.2369 27.263 98.1915 26.3084L102.934 21.5664C103.34 21.1604 103.678 20.7125 103.95 20.2368C103.59 20.4712 103.249 20.7462 102.934 21.0619L97.6871 26.3084C96.8206 27.175 95.7637 27.7353 94.6511 27.9893C93.926 26.9655 93.5 25.7151 93.5 24.3651V17.6589C93.5 17.0847 93.4229 16.5284 93.2785 16C93.1899 16.4201 93.1433 16.8557 93.1433 17.3022V24.7218C93.1433 25.9473 92.7922 27.0908 92.185 28.0572C90.9485 27.8459 89.763 27.263 88.8084 26.3084L84.0664 21.5664C83.6604 21.1604 83.2125 20.8216 82.7368 20.55C82.9712 20.9097 83.2462 21.2507 83.5619 21.5664L88.8084 26.8129C89.675 27.6795 90.2353 28.7363 90.4893 29.8489C89.4655 30.5739 88.2151 31 86.8651 31H80.1589C79.5847 31 79.0284 31.0771 78.5 31.2215C78.9201 31.3101 79.3557 31.3567 79.8022 31.3567H87.2218C88.4473 31.3567 89.5908 31.7079 90.5572 32.3151C90.3459 33.5515 89.763 34.7369 88.8084 35.6915L84.0664 40.4337C83.6604 40.8397 83.3216 41.2875 83.05 41.7633C83.4097 41.5288 83.7507 41.2537 84.0664 40.9381L89.3129 35.6915C90.1795 34.825 91.2363 34.2648 92.3489 34.0107C93.0739 35.0345 93.5 36.285 93.5 37.635V44.3412C93.5 44.9153 93.5771 45.4716 93.7215 46C93.8101 45.5799 93.8567 45.1443 93.8567 44.6979V37.2781C93.8567 36.0526 94.2079 34.9092 94.8151 33.9429C96.0515 34.1541 97.2369 34.7369 98.1915 35.6915L102.934 40.4337C103.34 40.8397 103.787 41.1784 104.263 41.4501C104.029 41.0902 103.754 40.7493 103.438 40.4337L98.1915 35.1871C97.325 34.3206 96.7648 33.2637 96.5108 32.1511C97.5345 31.426 98.785 31 100.135 31H106.841Z" fill="#AFA1F7"/>
</g>
</g>
<path d="M117.643 36.5L114.731 26.42H115.802L118.161 34.743L120.506 26.427L121.584 26.42L123.943 34.743L126.288 26.42H127.366L124.461 36.5H123.425L121.045 28.233L118.679 36.5H117.643ZM128.578 36.5V26.42H134.878V27.407H129.607V30.893H134.038V31.88H129.607V35.513H134.878V36.5H128.578ZM136.562 36.5V26.42H139.621C139.728 26.42 139.91 26.4223 140.167 26.427C140.428 26.4317 140.678 26.4503 140.916 26.483C141.681 26.5903 142.321 26.875 142.834 27.337C143.347 27.799 143.732 28.387 143.989 29.101C144.246 29.815 144.374 30.6013 144.374 31.46C144.374 32.3187 144.246 33.105 143.989 33.819C143.732 34.533 143.347 35.121 142.834 35.583C142.321 36.045 141.681 36.3297 140.916 36.437C140.683 36.465 140.433 36.4837 140.167 36.493C139.901 36.4977 139.719 36.5 139.621 36.5H136.562ZM137.626 35.513H139.621C139.812 35.513 140.018 35.5083 140.237 35.499C140.461 35.485 140.652 35.4617 140.811 35.429C141.399 35.3263 141.873 35.0883 142.232 34.715C142.596 34.3417 142.862 33.875 143.03 33.315C143.198 32.7503 143.282 32.132 143.282 31.46C143.282 30.7833 143.198 30.1627 143.03 29.598C142.862 29.0333 142.596 28.5667 142.232 28.198C141.868 27.8293 141.394 27.5937 140.811 27.491C140.652 27.4583 140.459 27.4373 140.23 27.428C140.006 27.414 139.803 27.407 139.621 27.407H137.626V35.513ZM145.968 36.5V26.42H149.027C149.135 26.42 149.317 26.4223 149.573 26.427C149.835 26.4317 150.084 26.4503 150.322 26.483C151.088 26.5903 151.727 26.875 152.24 27.337C152.754 27.799 153.139 28.387 153.395 29.101C153.652 29.815 153.78 30.6013 153.78 31.46C153.78 32.3187 153.652 33.105 153.395 33.819C153.139 34.533 152.754 35.121 152.24 35.583C151.727 36.045 151.088 36.3297 150.322 36.437C150.089 36.465 149.839 36.4837 149.573 36.493C149.307 36.4977 149.125 36.5 149.027 36.5H145.968ZM147.032 35.513H149.027C149.219 35.513 149.424 35.5083 149.643 35.499C149.867 35.485 150.059 35.4617 150.217 35.429C150.805 35.3263 151.279 35.0883 151.638 34.715C152.002 34.3417 152.268 33.875 152.436 33.315C152.604 32.7503 152.688 32.132 152.688 31.46C152.688 30.7833 152.604 30.1627 152.436 29.598C152.268 29.0333 152.002 28.5667 151.638 28.198C151.274 27.8293 150.801 27.5937 150.217 27.491C150.059 27.4583 149.865 27.4373 149.636 27.428C149.412 27.414 149.209 27.407 149.027 27.407H147.032V35.513ZM155.515 36.5V26.42H156.544V36.5H155.515ZM158.642 36.5V26.42H159.678L165.229 34.68V26.42H166.265V36.5H165.229L159.678 28.233V36.5H158.642ZM172.265 36.71C171.556 36.71 170.916 36.5863 170.347 36.339C169.778 36.0917 169.292 35.7393 168.891 35.282C168.494 34.8247 168.191 34.274 167.981 33.63C167.771 32.9813 167.666 32.258 167.666 31.46C167.666 30.4053 167.848 29.486 168.212 28.702C168.581 27.9133 169.108 27.302 169.794 26.868C170.48 26.434 171.304 26.217 172.265 26.217C173.338 26.217 174.211 26.469 174.883 26.973C175.56 27.4723 176.031 28.1443 176.297 28.989L175.261 29.241C175.042 28.625 174.68 28.1327 174.176 27.764C173.677 27.3953 173.054 27.211 172.307 27.211C171.518 27.2063 170.863 27.3837 170.34 27.743C169.817 28.0977 169.423 28.597 169.157 29.241C168.896 29.8803 168.763 30.62 168.758 31.46C168.753 32.3 168.882 33.0397 169.143 33.679C169.409 34.3137 169.806 34.813 170.333 35.177C170.86 35.5363 171.518 35.7183 172.307 35.723C173.03 35.723 173.628 35.583 174.099 35.303C174.57 35.023 174.927 34.6217 175.17 34.099C175.417 33.5763 175.557 32.958 175.59 32.244H173.266V31.362H176.668C176.682 31.4693 176.689 31.5837 176.689 31.705C176.694 31.8217 176.696 31.9057 176.696 31.957C176.696 32.867 176.533 33.6813 176.206 34.4C175.879 35.114 175.387 35.6787 174.729 36.094C174.076 36.5047 173.254 36.71 172.265 36.71ZM180.9 36.5V26.42H184.792C184.89 26.42 185 26.4247 185.121 26.434C185.247 26.4387 185.373 26.4527 185.499 26.476C186.026 26.5553 186.472 26.7397 186.836 27.029C187.205 27.3137 187.482 27.673 187.669 28.107C187.86 28.541 187.956 29.0217 187.956 29.549C187.956 30.0717 187.86 30.55 187.669 30.984C187.478 31.418 187.198 31.7797 186.829 32.069C186.465 32.3537 186.022 32.5357 185.499 32.615C185.373 32.6337 185.247 32.6477 185.121 32.657C185 32.6663 184.89 32.671 184.792 32.671H181.929V36.5H180.9ZM181.929 31.691H184.764C184.848 31.691 184.946 31.6863 185.058 31.677C185.17 31.6677 185.28 31.6513 185.387 31.628C185.732 31.5533 186.015 31.411 186.234 31.201C186.458 30.991 186.624 30.7413 186.731 30.452C186.843 30.1627 186.899 29.8617 186.899 29.549C186.899 29.2363 186.843 28.9353 186.731 28.646C186.624 28.352 186.458 28.1 186.234 27.89C186.015 27.68 185.732 27.5377 185.387 27.463C185.28 27.4397 185.17 27.4257 185.058 27.421C184.946 27.4117 184.848 27.407 184.764 27.407H181.929V31.691ZM189.349 36.5V26.42H190.378V30.963H195.95V26.42H196.972V36.5H195.95V31.95H190.378V36.5H189.349ZM203.014 36.71C202.011 36.71 201.164 36.4883 200.473 36.045C199.782 35.597 199.26 34.9787 198.905 34.19C198.55 33.4013 198.373 32.4913 198.373 31.46C198.373 30.4287 198.55 29.5187 198.905 28.73C199.26 27.9413 199.782 27.3253 200.473 26.882C201.164 26.434 202.011 26.21 203.014 26.21C204.022 26.21 204.869 26.434 205.555 26.882C206.246 27.3253 206.768 27.9413 207.123 28.73C207.482 29.5187 207.662 30.4287 207.662 31.46C207.662 32.4913 207.482 33.4013 207.123 34.19C206.768 34.9787 206.246 35.597 205.555 36.045C204.869 36.4883 204.022 36.71 203.014 36.71ZM203.014 35.723C203.803 35.723 204.461 35.5433 204.988 35.184C205.515 34.8247 205.91 34.3253 206.171 33.686C206.437 33.042 206.57 32.3 206.57 31.46C206.57 30.62 206.437 29.8803 206.171 29.241C205.91 28.6017 205.515 28.1023 204.988 27.743C204.461 27.3837 203.803 27.2017 203.014 27.197C202.225 27.197 201.57 27.3767 201.047 27.736C200.524 28.0953 200.13 28.597 199.864 29.241C199.603 29.8803 199.47 30.62 199.465 31.46C199.46 32.3 199.589 33.0397 199.85 33.679C200.116 34.3137 200.513 34.813 201.04 35.177C201.567 35.5363 202.225 35.7183 203.014 35.723ZM211.472 36.5V27.407H207.951V26.42H216.022V27.407H212.501V36.5H211.472ZM221.225 36.71C220.222 36.71 219.375 36.4883 218.684 36.045C217.993 35.597 217.471 34.9787 217.116 34.19C216.761 33.4013 216.584 32.4913 216.584 31.46C216.584 30.4287 216.761 29.5187 217.116 28.73C217.471 27.9413 217.993 27.3253 218.684 26.882C219.375 26.434 220.222 26.21 221.225 26.21C222.233 26.21 223.08 26.434 223.766 26.882C224.457 27.3253 224.979 27.9413 225.334 28.73C225.693 29.5187 225.873 30.4287 225.873 31.46C225.873 32.4913 225.693 33.4013 225.334 34.19C224.979 34.9787 224.457 35.597 223.766 36.045C223.08 36.4883 222.233 36.71 221.225 36.71ZM221.225 35.723C222.014 35.723 222.672 35.5433 223.199 35.184C223.726 34.8247 224.121 34.3253 224.382 33.686C224.648 33.042 224.781 32.3 224.781 31.46C224.781 30.62 224.648 29.8803 224.382 29.241C224.121 28.6017 223.726 28.1023 223.199 27.743C222.672 27.3837 222.014 27.2017 221.225 27.197C220.436 27.197 219.781 27.3767 219.258 27.736C218.735 28.0953 218.341 28.597 218.075 29.241C217.814 29.8803 217.681 30.62 217.676 31.46C217.671 32.3 217.8 33.0397 218.061 33.679C218.327 34.3137 218.724 34.813 219.251 35.177C219.778 35.5363 220.436 35.7183 221.225 35.723ZM231.314 36.71C230.605 36.71 229.965 36.5863 229.396 36.339C228.827 36.0917 228.341 35.7393 227.94 35.282C227.543 34.8247 227.24 34.274 227.03 33.63C226.82 32.9813 226.715 32.258 226.715 31.46C226.715 30.4053 226.897 29.486 227.261 28.702C227.63 27.9133 228.157 27.302 228.843 26.868C229.529 26.434 230.353 26.217 231.314 26.217C232.387 26.217 233.26 26.469 233.932 26.973C234.609 27.4723 235.08 28.1443 235.346 28.989L234.31 29.241C234.091 28.625 233.729 28.1327 233.225 27.764C232.726 27.3953 232.103 27.211 231.356 27.211C230.567 27.2063 229.912 27.3837 229.389 27.743C228.866 28.0977 228.472 28.597 228.206 29.241C227.945 29.8803 227.812 30.62 227.807 31.46C227.802 32.3 227.931 33.0397 228.192 33.679C228.458 34.3137 228.855 34.813 229.382 35.177C229.909 35.5363 230.567 35.7183 231.356 35.723C232.079 35.723 232.677 35.583 233.148 35.303C233.619 35.023 233.976 34.6217 234.219 34.099C234.466 33.5763 234.606 32.958 234.639 32.244H232.315V31.362H235.717C235.731 31.4693 235.738 31.5837 235.738 31.705C235.743 31.8217 235.745 31.9057 235.745 31.957C235.745 32.867 235.582 33.6813 235.255 34.4C234.928 35.114 234.436 35.6787 233.778 36.094C233.125 36.5047 232.303 36.71 231.314 36.71ZM237.146 36.5V26.42H241.038C241.136 26.42 241.246 26.4247 241.367 26.434C241.493 26.4387 241.619 26.4527 241.745 26.476C242.272 26.5553 242.718 26.7397 243.082 27.029C243.451 27.3137 243.728 27.673 243.915 28.107C244.106 28.541 244.202 29.0217 244.202 29.549C244.202 30.3097 244.001 30.97 243.6 31.53C243.199 32.09 242.625 32.4423 241.878 32.587L241.521 32.671H238.175V36.5H237.146ZM243.25 36.5L241.262 32.398L242.249 32.02L244.433 36.5H243.25ZM238.175 31.691H241.01C241.094 31.691 241.192 31.6863 241.304 31.677C241.416 31.6677 241.526 31.6513 241.633 31.628C241.978 31.5533 242.261 31.411 242.48 31.201C242.704 30.991 242.87 30.7413 242.977 30.452C243.089 30.1627 243.145 29.8617 243.145 29.549C243.145 29.2363 243.089 28.9353 242.977 28.646C242.87 28.352 242.704 28.1 242.48 27.89C242.261 27.68 241.978 27.5377 241.633 27.463C241.526 27.4397 241.416 27.4257 241.304 27.421C241.192 27.4117 241.094 27.407 241.01 27.407H238.175V31.691ZM245.278 36.5L248.75 26.42H250.115L253.587 36.5H252.516L249.219 26.994H249.625L246.349 36.5H245.278ZM246.825 34.057V33.091H252.033V34.057H246.825ZM254.851 36.5V26.42H258.743C258.841 26.42 258.951 26.4247 259.072 26.434C259.198 26.4387 259.324 26.4527 259.45 26.476C259.977 26.5553 260.423 26.7397 260.787 27.029C261.156 27.3137 261.433 27.673 261.62 28.107C261.811 28.541 261.907 29.0217 261.907 29.549C261.907 30.0717 261.811 30.55 261.62 30.984C261.429 31.418 261.149 31.7797 260.78 32.069C260.416 32.3537 259.973 32.5357 259.45 32.615C259.324 32.6337 259.198 32.6477 259.072 32.657C258.951 32.6663 258.841 32.671 258.743 32.671H255.88V36.5H254.851ZM255.88 31.691H258.715C258.799 31.691 258.897 31.6863 259.009 31.677C259.121 31.6677 259.231 31.6513 259.338 31.628C259.683 31.5533 259.966 31.411 260.185 31.201C260.409 30.991 260.575 30.7413 260.682 30.452C260.794 30.1627 260.85 29.8617 260.85 29.549C260.85 29.2363 260.794 28.9353 260.682 28.646C260.575 28.352 260.409 28.1 260.185 27.89C259.966 27.68 259.683 27.5377 259.338 27.463C259.231 27.4397 259.121 27.4257 259.009 27.421C258.897 27.4117 258.799 27.407 258.715 27.407H255.88V31.691ZM263.3 36.5V26.42H264.329V30.963H269.901V26.42H270.923V36.5H269.901V31.95H264.329V36.5H263.3ZM275.285 36.5V32.279L271.904 26.42H273.094L275.803 31.103L278.498 26.42H279.688L276.321 32.279V36.5H275.285Z" fill="#D7D0FB"/>
<g clip-path="url(#clip2_153_2566)">
<mask id="mask1_153_2566" style="mask-type:luminance" maskUnits="userSpaceOnUse" x="296" y="16" width="31" height="30">
<path d="M326.5 16H296.5V46H326.5V16Z" fill="white"/>
</mask>
<g mask="url(#mask1_153_2566)">
<path fill-rule="evenodd" clip-rule="evenodd" d="M324.841 31C325.415 31 325.972 30.9229 326.5 30.7785C326.08 30.6899 325.644 30.6433 325.198 30.6433H317.778C316.553 30.6433 315.409 30.2922 314.443 29.685C314.654 28.4484 315.237 27.263 316.192 26.3084L320.934 21.5664C321.34 21.1604 321.678 20.7125 321.95 20.2368C321.59 20.4712 321.249 20.7462 320.934 21.0619L315.687 26.3084C314.821 27.175 313.764 27.7353 312.651 27.9893C311.926 26.9655 311.5 25.7151 311.5 24.3651V17.6589C311.5 17.0847 311.423 16.5284 311.279 16C311.19 16.4201 311.143 16.8557 311.143 17.3022V24.7218C311.143 25.9473 310.792 27.0908 310.185 28.0572C308.948 27.8459 307.763 27.263 306.808 26.3084L302.066 21.5664C301.66 21.1604 301.213 20.8216 300.737 20.55C300.971 20.9097 301.246 21.2507 301.562 21.5664L306.808 26.8129C307.675 27.6795 308.235 28.7363 308.489 29.8489C307.465 30.5739 306.215 31 304.865 31H298.159C297.585 31 297.028 31.0771 296.5 31.2215C296.92 31.3101 297.356 31.3567 297.802 31.3567H305.222C306.447 31.3567 307.591 31.7079 308.557 32.3151C308.346 33.5515 307.763 34.7369 306.808 35.6915L302.066 40.4337C301.66 40.8397 301.322 41.2875 301.05 41.7633C301.41 41.5288 301.751 41.2537 302.066 40.9381L307.313 35.6915C308.179 34.825 309.236 34.2648 310.349 34.0107C311.074 35.0345 311.5 36.285 311.5 37.635V44.3412C311.5 44.9153 311.577 45.4716 311.722 46C311.81 45.5799 311.857 45.1443 311.857 44.6979V37.2781C311.857 36.0526 312.208 34.9092 312.815 33.9429C314.052 34.1541 315.237 34.7369 316.192 35.6915L320.934 40.4337C321.34 40.8397 321.787 41.1784 322.263 41.4501C322.029 41.0902 321.754 40.7493 321.438 40.4337L316.192 35.1871C315.325 34.3206 314.765 33.2637 314.511 32.1511C315.535 31.426 316.785 31 318.135 31H324.841Z" fill="#AFA1F7"/>
</g>
</g>
<path d="M333.62 36.5V26.42H334.649V35.513H339.437V36.5H333.62ZM339.93 36.5L343.402 26.42H344.767L348.239 36.5H347.168L343.871 26.994H344.277L341.001 36.5H339.93ZM341.477 34.057V33.091H346.685V34.057H341.477ZM349.503 36.5V26.42H350.539L356.09 34.68V26.42H357.126V36.5H356.09L350.539 28.233V36.5H349.503ZM359.087 36.5V26.42H362.146C362.254 26.42 362.436 26.4223 362.692 26.427C362.954 26.4317 363.203 26.4503 363.441 26.483C364.207 26.5903 364.846 26.875 365.359 27.337C365.873 27.799 366.258 28.387 366.514 29.101C366.771 29.815 366.899 30.6013 366.899 31.46C366.899 32.3187 366.771 33.105 366.514 33.819C366.258 34.533 365.873 35.121 365.359 35.583C364.846 36.045 364.207 36.3297 363.441 36.437C363.208 36.465 362.958 36.4837 362.692 36.493C362.426 36.4977 362.244 36.5 362.146 36.5H359.087ZM360.151 35.513H362.146C362.338 35.513 362.543 35.5083 362.762 35.499C362.986 35.485 363.178 35.4617 363.336 35.429C363.924 35.3263 364.398 35.0883 364.757 34.715C365.121 34.3417 365.387 33.875 365.555 33.315C365.723 32.7503 365.807 32.132 365.807 31.46C365.807 30.7833 365.723 30.1627 365.555 29.598C365.387 29.0333 365.121 28.5667 364.757 28.198C364.393 27.8293 363.92 27.5937 363.336 27.491C363.178 27.4583 362.984 27.4373 362.755 27.428C362.531 27.414 362.328 27.407 362.146 27.407H360.151V35.513ZM371.994 36.71C371.289 36.71 370.654 36.5933 370.09 36.36C369.53 36.122 369.065 35.786 368.697 35.352C368.333 34.918 368.095 34.4023 367.983 33.805L369.033 33.63C369.201 34.2833 369.555 34.7967 370.097 35.17C370.638 35.5387 371.284 35.723 372.036 35.723C372.53 35.723 372.974 35.646 373.366 35.492C373.758 35.3333 374.066 35.1093 374.29 34.82C374.514 34.5307 374.626 34.1877 374.626 33.791C374.626 33.5297 374.579 33.308 374.486 33.126C374.392 32.9393 374.269 32.7853 374.115 32.664C373.961 32.5427 373.793 32.4423 373.611 32.363C373.429 32.279 373.251 32.2113 373.079 32.16L370.524 31.397C370.216 31.3083 369.931 31.1963 369.67 31.061C369.408 30.921 369.18 30.7553 368.984 30.564C368.792 30.368 368.643 30.1393 368.536 29.878C368.428 29.6167 368.375 29.318 368.375 28.982C368.375 28.4127 368.524 27.9203 368.823 27.505C369.121 27.0897 369.53 26.77 370.048 26.546C370.566 26.322 371.156 26.2123 371.819 26.217C372.491 26.217 373.09 26.336 373.618 26.574C374.15 26.812 374.588 27.1527 374.934 27.596C375.279 28.0347 375.508 28.555 375.62 29.157L374.542 29.353C374.472 28.9143 374.311 28.534 374.059 28.212C373.807 27.89 373.485 27.6427 373.093 27.47C372.705 27.2927 372.278 27.2017 371.812 27.197C371.359 27.197 370.955 27.274 370.601 27.428C370.251 27.5773 369.973 27.7827 369.768 28.044C369.562 28.3053 369.46 28.604 369.46 28.94C369.46 29.2807 369.553 29.5537 369.74 29.759C369.931 29.9643 370.164 30.1253 370.44 30.242C370.72 30.3587 370.99 30.4543 371.252 30.529L373.226 31.11C373.431 31.166 373.671 31.2477 373.947 31.355C374.227 31.4577 374.497 31.607 374.759 31.803C375.025 31.9943 375.244 32.2463 375.417 32.559C375.589 32.8717 375.676 33.2683 375.676 33.749C375.676 34.2157 375.582 34.6333 375.396 35.002C375.214 35.3707 374.955 35.681 374.619 35.933C374.287 36.185 373.898 36.3763 373.45 36.507C373.006 36.6423 372.521 36.71 371.994 36.71ZM381.202 36.71C380.198 36.71 379.351 36.4883 378.661 36.045C377.97 35.597 377.447 34.9787 377.093 34.19C376.738 33.4013 376.561 32.4913 376.561 31.46C376.561 30.4287 376.738 29.5187 377.093 28.73C377.447 27.9413 377.97 27.3253 378.661 26.882C379.351 26.434 380.198 26.21 381.202 26.21C382.373 26.21 383.33 26.511 384.072 27.113C384.814 27.7103 385.322 28.513 385.598 29.521L384.548 29.794C384.333 28.996 383.948 28.3637 383.393 27.897C382.837 27.4303 382.107 27.197 381.202 27.197C380.413 27.197 379.757 27.3767 379.235 27.736C378.712 28.0953 378.318 28.597 378.052 29.241C377.79 29.8803 377.655 30.62 377.646 31.46C377.641 32.3 377.769 33.0397 378.031 33.679C378.297 34.3183 378.693 34.82 379.221 35.184C379.753 35.5433 380.413 35.723 381.202 35.723C382.107 35.723 382.837 35.4897 383.393 35.023C383.948 34.5517 384.333 33.9193 384.548 33.126L385.598 33.399C385.322 34.407 384.814 35.212 384.072 35.814C383.33 36.4113 382.373 36.71 381.202 36.71ZM386.169 36.5L389.641 26.42H391.006L394.478 36.5H393.407L390.11 26.994H390.516L387.24 36.5H386.169ZM387.716 34.057V33.091H392.924V34.057H387.716ZM395.742 36.5V26.42H399.634C399.732 26.42 399.841 26.4247 399.963 26.434C400.089 26.4387 400.215 26.4527 400.341 26.476C400.868 26.5553 401.314 26.7397 401.678 27.029C402.046 27.3137 402.324 27.673 402.511 28.107C402.702 28.541 402.798 29.0217 402.798 29.549C402.798 30.0717 402.702 30.55 402.511 30.984C402.319 31.418 402.039 31.7797 401.671 32.069C401.307 32.3537 400.863 32.5357 400.341 32.615C400.215 32.6337 400.089 32.6477 399.963 32.657C399.841 32.6663 399.732 32.671 399.634 32.671H396.771V36.5H395.742ZM396.771 31.691H399.606C399.69 31.691 399.788 31.6863 399.9 31.677C400.012 31.6677 400.121 31.6513 400.229 31.628C400.574 31.5533 400.856 31.411 401.076 31.201C401.3 30.991 401.465 30.7413 401.573 30.452C401.685 30.1627 401.741 29.8617 401.741 29.549C401.741 29.2363 401.685 28.9353 401.573 28.646C401.465 28.352 401.3 28.1 401.076 27.89C400.856 27.68 400.574 27.5377 400.229 27.463C400.121 27.4397 400.012 27.4257 399.9 27.421C399.788 27.4117 399.69 27.407 399.606 27.407H396.771V31.691ZM404.191 36.5V26.42H410.491V27.407H405.22V30.893H409.651V31.88H405.22V35.513H410.491V36.5H404.191ZM414.978 36.5V26.42H418.87C418.968 26.42 419.078 26.4247 419.199 26.434C419.325 26.4387 419.451 26.4527 419.577 26.476C420.104 26.5553 420.55 26.7397 420.914 27.029C421.283 27.3137 421.56 27.673 421.747 28.107C421.938 28.541 422.034 29.0217 422.034 29.549C422.034 30.0717 421.938 30.55 421.747 30.984C421.556 31.418 421.276 31.7797 420.907 32.069C420.543 32.3537 420.1 32.5357 419.577 32.615C419.451 32.6337 419.325 32.6477 419.199 32.657C419.078 32.6663 418.968 32.671 418.87 32.671H416.007V36.5H414.978ZM416.007 31.691H418.842C418.926 31.691 419.024 31.6863 419.136 31.677C419.248 31.6677 419.358 31.6513 419.465 31.628C419.81 31.5533 420.093 31.411 420.312 31.201C420.536 30.991 420.702 30.7413 420.809 30.452C420.921 30.1627 420.977 29.8617 420.977 29.549C420.977 29.2363 420.921 28.9353 420.809 28.646C420.702 28.352 420.536 28.1 420.312 27.89C420.093 27.68 419.81 27.5377 419.465 27.463C419.358 27.4397 419.248 27.4257 419.136 27.421C419.024 27.4117 418.926 27.407 418.842 27.407H416.007V31.691ZM423.427 36.5V26.42H424.456V30.963H430.028V26.42H431.05V36.5H430.028V31.95H424.456V36.5H423.427ZM437.092 36.71C436.089 36.71 435.242 36.4883 434.551 36.045C433.861 35.597 433.338 34.9787 432.983 34.19C432.629 33.4013 432.451 32.4913 432.451 31.46C432.451 30.4287 432.629 29.5187 432.983 28.73C433.338 27.9413 433.861 27.3253 434.551 26.882C435.242 26.434 436.089 26.21 437.092 26.21C438.1 26.21 438.947 26.434 439.633 26.882C440.324 27.3253 440.847 27.9413 441.201 28.73C441.561 29.5187 441.74 30.4287 441.74 31.46C441.74 32.4913 441.561 33.4013 441.201 34.19C440.847 34.9787 440.324 35.597 439.633 36.045C438.947 36.4883 438.1 36.71 437.092 36.71ZM437.092 35.723C437.881 35.723 438.539 35.5433 439.066 35.184C439.594 34.8247 439.988 34.3253 440.249 33.686C440.515 33.042 440.648 32.3 440.648 31.46C440.648 30.62 440.515 29.8803 440.249 29.241C439.988 28.6017 439.594 28.1023 439.066 27.743C438.539 27.3837 437.881 27.2017 437.092 27.197C436.304 27.197 435.648 27.3767 435.125 27.736C434.603 28.0953 434.208 28.597 433.942 29.241C433.681 29.8803 433.548 30.62 433.543 31.46C433.539 32.3 433.667 33.0397 433.928 33.679C434.194 34.3137 434.591 34.813 435.118 35.177C435.646 35.5363 436.304 35.7183 437.092 35.723ZM445.55 36.5V27.407H442.029V26.42H450.1V27.407H446.579V36.5H445.55ZM455.303 36.71C454.3 36.71 453.453 36.4883 452.762 36.045C452.072 35.597 451.549 34.9787 451.194 34.19C450.84 33.4013 450.662 32.4913 450.662 31.46C450.662 30.4287 450.84 29.5187 451.194 28.73C451.549 27.9413 452.072 27.3253 452.762 26.882C453.453 26.434 454.3 26.21 455.303 26.21C456.311 26.21 457.158 26.434 457.844 26.882C458.535 27.3253 459.058 27.9413 459.412 28.73C459.772 29.5187 459.951 30.4287 459.951 31.46C459.951 32.4913 459.772 33.4013 459.412 34.19C459.058 34.9787 458.535 35.597 457.844 36.045C457.158 36.4883 456.311 36.71 455.303 36.71ZM455.303 35.723C456.092 35.723 456.75 35.5433 457.277 35.184C457.805 34.8247 458.199 34.3253 458.46 33.686C458.726 33.042 458.859 32.3 458.859 31.46C458.859 30.62 458.726 29.8803 458.46 29.241C458.199 28.6017 457.805 28.1023 457.277 27.743C456.75 27.3837 456.092 27.2017 455.303 27.197C454.515 27.197 453.859 27.3767 453.336 27.736C452.814 28.0953 452.419 28.597 452.153 29.241C451.892 29.8803 451.759 30.62 451.754 31.46C451.75 32.3 451.878 33.0397 452.139 33.679C452.405 34.3137 452.802 34.813 453.329 35.177C453.857 35.5363 454.515 35.7183 455.303 35.723ZM465.392 36.71C464.683 36.71 464.043 36.5863 463.474 36.339C462.905 36.0917 462.419 35.7393 462.018 35.282C461.621 34.8247 461.318 34.274 461.108 33.63C460.898 32.9813 460.793 32.258 460.793 31.46C460.793 30.4053 460.975 29.486 461.339 28.702C461.708 27.9133 462.235 27.302 462.921 26.868C463.607 26.434 464.431 26.217 465.392 26.217C466.465 26.217 467.338 26.469 468.01 26.973C468.687 27.4723 469.158 28.1443 469.424 28.989L468.388 29.241C468.169 28.625 467.807 28.1327 467.303 27.764C466.804 27.3953 466.181 27.211 465.434 27.211C464.645 27.2063 463.99 27.3837 463.467 27.743C462.944 28.0977 462.55 28.597 462.284 29.241C462.023 29.8803 461.89 30.62 461.885 31.46C461.88 32.3 462.009 33.0397 462.27 33.679C462.536 34.3137 462.933 34.813 463.46 35.177C463.987 35.5363 464.645 35.7183 465.434 35.723C466.157 35.723 466.755 35.583 467.226 35.303C467.697 35.023 468.054 34.6217 468.297 34.099C468.544 33.5763 468.684 32.958 468.717 32.244H466.393V31.362H469.795C469.809 31.4693 469.816 31.5837 469.816 31.705C469.821 31.8217 469.823 31.9057 469.823 31.957C469.823 32.867 469.66 33.6813 469.333 34.4C469.006 35.114 468.514 35.6787 467.856 36.094C467.203 36.5047 466.381 36.71 465.392 36.71ZM471.224 36.5V26.42H475.116C475.214 26.42 475.324 26.4247 475.445 26.434C475.571 26.4387 475.697 26.4527 475.823 26.476C476.35 26.5553 476.796 26.7397 477.16 27.029C477.529 27.3137 477.806 27.673 477.993 28.107C478.184 28.541 478.28 29.0217 478.28 29.549C478.28 30.3097 478.079 30.97 477.678 31.53C477.277 32.09 476.703 32.4423 475.956 32.587L475.599 32.671H472.253V36.5H471.224ZM477.328 36.5L475.34 32.398L476.327 32.02L478.511 36.5H477.328ZM472.253 31.691H475.088C475.172 31.691 475.27 31.6863 475.382 31.677C475.494 31.6677 475.604 31.6513 475.711 31.628C476.056 31.5533 476.339 31.411 476.558 31.201C476.782 30.991 476.948 30.7413 477.055 30.452C477.167 30.1627 477.223 29.8617 477.223 29.549C477.223 29.2363 477.167 28.9353 477.055 28.646C476.948 28.352 476.782 28.1 476.558 27.89C476.339 27.68 476.056 27.5377 475.711 27.463C475.604 27.4397 475.494 27.4257 475.382 27.421C475.27 27.4117 475.172 27.407 475.088 27.407H472.253V31.691ZM479.356 36.5L482.828 26.42H484.193L487.665 36.5H486.594L483.297 26.994H483.703L480.427 36.5H479.356ZM480.903 34.057V33.091H486.111V34.057H480.903ZM488.929 36.5V26.42H492.821C492.919 26.42 493.029 26.4247 493.15 26.434C493.276 26.4387 493.402 26.4527 493.528 26.476C494.056 26.5553 494.501 26.7397 494.865 27.029C495.234 27.3137 495.512 27.673 495.698 28.107C495.89 28.541 495.985 29.0217 495.985 29.549C495.985 30.0717 495.89 30.55 495.698 30.984C495.507 31.418 495.227 31.7797 494.858 32.069C494.494 32.3537 494.051 32.5357 493.528 32.615C493.402 32.6337 493.276 32.6477 493.15 32.657C493.029 32.6663 492.919 32.671 492.821 32.671H489.958V36.5H488.929ZM489.958 31.691H492.793C492.877 31.691 492.975 31.6863 493.087 31.677C493.199 31.6677 493.309 31.6513 493.416 31.628C493.762 31.5533 494.044 31.411 494.263 31.201C494.487 30.991 494.653 30.7413 494.76 30.452C494.872 30.1627 494.928 29.8617 494.928 29.549C494.928 29.2363 494.872 28.9353 494.76 28.646C494.653 28.352 494.487 28.1 494.263 27.89C494.044 27.68 493.762 27.5377 493.416 27.463C493.309 27.4397 493.199 27.4257 493.087 27.421C492.975 27.4117 492.877 27.407 492.793 27.407H489.958V31.691ZM497.378 36.5V26.42H498.407V30.963H503.979V26.42H505.001V36.5H503.979V31.95H498.407V36.5H497.378ZM509.363 36.5V32.279L505.982 26.42H507.172L509.881 31.103L512.576 26.42H513.766L510.399 32.279V36.5H509.363Z" fill="#D7D0FB"/>
</g>
<path d="M0 1H390V-1H0V1ZM390 61H0V63H390V61Z" fill="#1C1C21" mask="url(#path-1-inside-1_153_2566)"/>
<defs>
<clipPath id="clip0_153_2566">
<path d="M0 0H390V62H0V0Z" fill="white"/>
</clipPath>
<clipPath id="clip1_153_2566">
<rect width="30" height="30" fill="white" transform="translate(78.5 16)"/>
</clipPath>
<clipPath id="clip2_153_2566">
<rect width="30" height="30" fill="white" transform="translate(296.5 16)"/>
</clipPath>
</defs>
</svg>
