<svg width="203" height="30" viewBox="0 0 203 30" fill="none" xmlns="http://www.w3.org/2000/svg">
<g clip-path="url(#clip0_153_2591)">
<mask id="mask0_153_2591" style="mask-type:luminance" maskUnits="userSpaceOnUse" x="0" y="0" width="31" height="30">
<path d="M30.5 0H0.5V30H30.5V0Z" fill="white"/>
</mask>
<g mask="url(#mask0_153_2591)">
<path fill-rule="evenodd" clip-rule="evenodd" d="M28.8412 15C29.4153 15 29.9716 14.9229 30.5 14.7785C30.0799 14.6899 29.6443 14.6433 29.1979 14.6433H21.7782C20.5527 14.6433 19.4092 14.2922 18.4429 13.685C18.6541 12.4484 19.2369 11.263 20.1915 10.3084L24.9337 5.56641C25.3397 5.16036 25.6784 4.71253 25.9501 4.23678C25.5902 4.47119 25.2493 4.74624 24.9337 5.06194L19.6871 10.3084C18.8206 11.175 17.7637 11.7353 16.6511 11.9893C15.926 10.9655 15.5 9.71507 15.5 8.36513V1.6589C15.5 1.08466 15.4229 0.528435 15.2785 0C15.1899 0.420107 15.1433 0.855699 15.1433 1.30218V8.72184C15.1433 9.94733 14.7922 11.0908 14.185 12.0572C12.9485 11.8459 11.763 11.263 10.8084 10.3084L6.06641 5.56641C5.66036 5.16036 5.21253 4.82156 4.73678 4.55001C4.97119 4.90973 5.24624 5.25071 5.56194 5.56641L10.8084 10.8129C11.675 11.6795 12.2353 12.7363 12.4893 13.8489C11.4655 14.5739 10.2151 15 8.86513 15H2.1589C1.58466 15 1.02843 15.0771 0.5 15.2215C0.92011 15.3101 1.3557 15.3567 1.80218 15.3567H9.22184C10.4473 15.3567 11.5908 15.7079 12.5572 16.3151C12.3459 17.5515 11.763 18.7369 10.8084 19.6915L6.06641 24.4337C5.66038 24.8397 5.32157 25.2875 5.05002 25.7633C5.40974 25.5288 5.75071 25.2537 6.06641 24.9381L11.3129 19.6915C12.1795 18.825 13.2363 18.2648 14.3489 18.0107C15.0739 19.0345 15.5 20.285 15.5 21.635V28.3412C15.5 28.9153 15.5771 29.4716 15.7215 30C15.8101 29.5799 15.8567 29.1443 15.8567 28.6979V21.2781C15.8567 20.0526 16.2079 18.9092 16.8151 17.9429C18.0515 18.1541 19.2369 18.7369 20.1915 19.6915L24.9337 24.4337C25.3397 24.8397 25.7875 25.1784 26.2633 25.4501C26.0288 25.0902 25.7537 24.7493 25.4381 24.4337L20.1915 19.1871C19.325 18.3206 18.7648 17.2637 18.5108 16.1511C19.5345 15.426 20.785 15 22.135 15H28.8412Z" fill="#AFA1F7"/>
</g>
</g>
<path d="M39.643 20.5L36.731 10.42H37.802L40.161 18.743L42.506 10.427L43.584 10.42L45.943 18.743L48.288 10.42H49.366L46.461 20.5H45.425L43.045 12.233L40.679 20.5H39.643ZM50.5777 20.5V10.42H56.8777V11.407H51.6067V14.893H56.0377V15.88H51.6067V19.513H56.8777V20.5H50.5777ZM58.562 20.5V10.42H61.621C61.7284 10.42 61.9104 10.4223 62.167 10.427C62.4284 10.4317 62.678 10.4503 62.916 10.483C63.6814 10.5903 64.3207 10.875 64.834 11.337C65.3474 11.799 65.7324 12.387 65.989 13.101C66.2457 13.815 66.374 14.6013 66.374 15.46C66.374 16.3187 66.2457 17.105 65.989 17.819C65.7324 18.533 65.3474 19.121 64.834 19.583C64.3207 20.045 63.6814 20.3297 62.916 20.437C62.6827 20.465 62.433 20.4837 62.167 20.493C61.901 20.4977 61.719 20.5 61.621 20.5H58.562ZM59.626 19.513H61.621C61.8124 19.513 62.0177 19.5083 62.237 19.499C62.461 19.485 62.6524 19.4617 62.811 19.429C63.399 19.3263 63.8727 19.0883 64.232 18.715C64.596 18.3417 64.862 17.875 65.03 17.315C65.198 16.7503 65.282 16.132 65.282 15.46C65.282 14.7833 65.198 14.1627 65.03 13.598C64.862 13.0333 64.596 12.5667 64.232 12.198C63.868 11.8293 63.3944 11.5937 62.811 11.491C62.6524 11.4583 62.4587 11.4373 62.23 11.428C62.006 11.414 61.803 11.407 61.621 11.407H59.626V19.513ZM67.9683 20.5V10.42H71.0273C71.1346 10.42 71.3166 10.4223 71.5733 10.427C71.8346 10.4317 72.0843 10.4503 72.3223 10.483C73.0876 10.5903 73.7269 10.875 74.2403 11.337C74.7536 11.799 75.1386 12.387 75.3953 13.101C75.6519 13.815 75.7803 14.6013 75.7803 15.46C75.7803 16.3187 75.6519 17.105 75.3953 17.819C75.1386 18.533 74.7536 19.121 74.2403 19.583C73.7269 20.045 73.0876 20.3297 72.3223 20.437C72.0889 20.465 71.8393 20.4837 71.5733 20.493C71.3073 20.4977 71.1253 20.5 71.0273 20.5H67.9683ZM69.0323 19.513H71.0273C71.2186 19.513 71.4239 19.5083 71.6433 19.499C71.8673 19.485 72.0586 19.4617 72.2173 19.429C72.8053 19.3263 73.2789 19.0883 73.6383 18.715C74.0023 18.3417 74.2683 17.875 74.4363 17.315C74.6043 16.7503 74.6883 16.132 74.6883 15.46C74.6883 14.7833 74.6043 14.1627 74.4363 13.598C74.2683 13.0333 74.0023 12.5667 73.6383 12.198C73.2743 11.8293 72.8006 11.5937 72.2173 11.491C72.0586 11.4583 71.8649 11.4373 71.6363 11.428C71.4123 11.414 71.2093 11.407 71.0273 11.407H69.0323V19.513ZM77.5145 20.5V10.42H78.5435V20.5H77.5145ZM80.6421 20.5V10.42H81.6781L87.2291 18.68V10.42H88.2651V20.5H87.2291L81.6781 12.233V20.5H80.6421ZM94.2651 20.71C93.5558 20.71 92.9164 20.5863 92.3471 20.339C91.7778 20.0917 91.2924 19.7393 90.8911 19.282C90.4944 18.8247 90.1911 18.274 89.9811 17.63C89.7711 16.9813 89.6661 16.258 89.6661 15.46C89.6661 14.4053 89.8481 13.486 90.2121 12.702C90.5808 11.9133 91.1081 11.302 91.7941 10.868C92.4801 10.434 93.3038 10.217 94.2651 10.217C95.3384 10.217 96.2111 10.469 96.8831 10.973C97.5598 11.4723 98.0311 12.1443 98.2971 12.989L97.2611 13.241C97.0418 12.625 96.6801 12.1327 96.1761 11.764C95.6768 11.3953 95.0538 11.211 94.3071 11.211C93.5184 11.2063 92.8628 11.3837 92.3401 11.743C91.8174 12.0977 91.4231 12.597 91.1571 13.241C90.8958 13.8803 90.7628 14.62 90.7581 15.46C90.7534 16.3 90.8818 17.0397 91.1431 17.679C91.4091 18.3137 91.8058 18.813 92.3331 19.177C92.8604 19.5363 93.5184 19.7183 94.3071 19.723C95.0304 19.723 95.6278 19.583 96.0991 19.303C96.5704 19.023 96.9274 18.6217 97.1701 18.099C97.4174 17.5763 97.5574 16.958 97.5901 16.244H95.2661V15.362H98.6681C98.6821 15.4693 98.6891 15.5837 98.6891 15.705C98.6938 15.8217 98.6961 15.9057 98.6961 15.957C98.6961 16.867 98.5328 17.6813 98.2061 18.4C97.8794 19.114 97.3871 19.6787 96.7291 20.094C96.0758 20.5047 95.2544 20.71 94.2651 20.71ZM102.9 20.5V10.42H106.792C106.89 10.42 107 10.4247 107.121 10.434C107.247 10.4387 107.373 10.4527 107.499 10.476C108.026 10.5553 108.472 10.7397 108.836 11.029C109.205 11.3137 109.482 11.673 109.669 12.107C109.86 12.541 109.956 13.0217 109.956 13.549C109.956 14.0717 109.86 14.55 109.669 14.984C109.478 15.418 109.198 15.7797 108.829 16.069C108.465 16.3537 108.022 16.5357 107.499 16.615C107.373 16.6337 107.247 16.6477 107.121 16.657C107 16.6663 106.89 16.671 106.792 16.671H103.929V20.5H102.9ZM103.929 15.691H106.764C106.848 15.691 106.946 15.6863 107.058 15.677C107.17 15.6677 107.28 15.6513 107.387 15.628C107.732 15.5533 108.015 15.411 108.234 15.201C108.458 14.991 108.624 14.7413 108.731 14.452C108.843 14.1627 108.899 13.8617 108.899 13.549C108.899 13.2363 108.843 12.9353 108.731 12.646C108.624 12.352 108.458 12.1 108.234 11.89C108.015 11.68 107.732 11.5377 107.387 11.463C107.28 11.4397 107.17 11.4257 107.058 11.421C106.946 11.4117 106.848 11.407 106.764 11.407H103.929V15.691ZM111.349 20.5V10.42H112.378V14.963H117.95V10.42H118.972V20.5H117.95V15.95H112.378V20.5H111.349ZM125.014 20.71C124.011 20.71 123.164 20.4883 122.473 20.045C121.782 19.597 121.26 18.9787 120.905 18.19C120.55 17.4013 120.373 16.4913 120.373 15.46C120.373 14.4287 120.55 13.5187 120.905 12.73C121.26 11.9413 121.782 11.3253 122.473 10.882C123.164 10.434 124.011 10.21 125.014 10.21C126.022 10.21 126.869 10.434 127.555 10.882C128.246 11.3253 128.768 11.9413 129.123 12.73C129.482 13.5187 129.662 14.4287 129.662 15.46C129.662 16.4913 129.482 17.4013 129.123 18.19C128.768 18.9787 128.246 19.597 127.555 20.045C126.869 20.4883 126.022 20.71 125.014 20.71ZM125.014 19.723C125.803 19.723 126.461 19.5433 126.988 19.184C127.515 18.8247 127.91 18.3253 128.171 17.686C128.437 17.042 128.57 16.3 128.57 15.46C128.57 14.62 128.437 13.8803 128.171 13.241C127.91 12.6017 127.515 12.1023 126.988 11.743C126.461 11.3837 125.803 11.2017 125.014 11.197C124.225 11.197 123.57 11.3767 123.047 11.736C122.524 12.0953 122.13 12.597 121.864 13.241C121.603 13.8803 121.47 14.62 121.465 15.46C121.46 16.3 121.589 17.0397 121.85 17.679C122.116 18.3137 122.513 18.813 123.04 19.177C123.567 19.5363 124.225 19.7183 125.014 19.723ZM133.472 20.5V11.407H129.951V10.42H138.022V11.407H134.501V20.5H133.472ZM143.225 20.71C142.222 20.71 141.375 20.4883 140.684 20.045C139.993 19.597 139.471 18.9787 139.116 18.19C138.761 17.4013 138.584 16.4913 138.584 15.46C138.584 14.4287 138.761 13.5187 139.116 12.73C139.471 11.9413 139.993 11.3253 140.684 10.882C141.375 10.434 142.222 10.21 143.225 10.21C144.233 10.21 145.08 10.434 145.766 10.882C146.457 11.3253 146.979 11.9413 147.334 12.73C147.693 13.5187 147.873 14.4287 147.873 15.46C147.873 16.4913 147.693 17.4013 147.334 18.19C146.979 18.9787 146.457 19.597 145.766 20.045C145.08 20.4883 144.233 20.71 143.225 20.71ZM143.225 19.723C144.014 19.723 144.672 19.5433 145.199 19.184C145.726 18.8247 146.121 18.3253 146.382 17.686C146.648 17.042 146.781 16.3 146.781 15.46C146.781 14.62 146.648 13.8803 146.382 13.241C146.121 12.6017 145.726 12.1023 145.199 11.743C144.672 11.3837 144.014 11.2017 143.225 11.197C142.436 11.197 141.781 11.3767 141.258 11.736C140.735 12.0953 140.341 12.597 140.075 13.241C139.814 13.8803 139.681 14.62 139.676 15.46C139.671 16.3 139.8 17.0397 140.061 17.679C140.327 18.3137 140.724 18.813 141.251 19.177C141.778 19.5363 142.436 19.7183 143.225 19.723ZM153.314 20.71C152.605 20.71 151.965 20.5863 151.396 20.339C150.827 20.0917 150.341 19.7393 149.94 19.282C149.543 18.8247 149.24 18.274 149.03 17.63C148.82 16.9813 148.715 16.258 148.715 15.46C148.715 14.4053 148.897 13.486 149.261 12.702C149.63 11.9133 150.157 11.302 150.843 10.868C151.529 10.434 152.353 10.217 153.314 10.217C154.387 10.217 155.26 10.469 155.932 10.973C156.609 11.4723 157.08 12.1443 157.346 12.989L156.31 13.241C156.091 12.625 155.729 12.1327 155.225 11.764C154.726 11.3953 154.103 11.211 153.356 11.211C152.567 11.2063 151.912 11.3837 151.389 11.743C150.866 12.0977 150.472 12.597 150.206 13.241C149.945 13.8803 149.812 14.62 149.807 15.46C149.802 16.3 149.931 17.0397 150.192 17.679C150.458 18.3137 150.855 18.813 151.382 19.177C151.909 19.5363 152.567 19.7183 153.356 19.723C154.079 19.723 154.677 19.583 155.148 19.303C155.619 19.023 155.976 18.6217 156.219 18.099C156.466 17.5763 156.606 16.958 156.639 16.244H154.315V15.362H157.717C157.731 15.4693 157.738 15.5837 157.738 15.705C157.743 15.8217 157.745 15.9057 157.745 15.957C157.745 16.867 157.582 17.6813 157.255 18.4C156.928 19.114 156.436 19.6787 155.778 20.094C155.125 20.5047 154.303 20.71 153.314 20.71ZM159.146 20.5V10.42H163.038C163.136 10.42 163.246 10.4247 163.367 10.434C163.493 10.4387 163.619 10.4527 163.745 10.476C164.272 10.5553 164.718 10.7397 165.082 11.029C165.451 11.3137 165.728 11.673 165.915 12.107C166.106 12.541 166.202 13.0217 166.202 13.549C166.202 14.3097 166.001 14.97 165.6 15.53C165.199 16.09 164.625 16.4423 163.878 16.587L163.521 16.671H160.175V20.5H159.146ZM165.25 20.5L163.262 16.398L164.249 16.02L166.433 20.5H165.25ZM160.175 15.691H163.01C163.094 15.691 163.192 15.6863 163.304 15.677C163.416 15.6677 163.526 15.6513 163.633 15.628C163.978 15.5533 164.261 15.411 164.48 15.201C164.704 14.991 164.87 14.7413 164.977 14.452C165.089 14.1627 165.145 13.8617 165.145 13.549C165.145 13.2363 165.089 12.9353 164.977 12.646C164.87 12.352 164.704 12.1 164.48 11.89C164.261 11.68 163.978 11.5377 163.633 11.463C163.526 11.4397 163.416 11.4257 163.304 11.421C163.192 11.4117 163.094 11.407 163.01 11.407H160.175V15.691ZM167.278 20.5L170.75 10.42H172.115L175.587 20.5H174.516L171.219 10.994H171.625L168.349 20.5H167.278ZM168.825 18.057V17.091H174.033V18.057H168.825ZM176.851 20.5V10.42H180.743C180.841 10.42 180.951 10.4247 181.072 10.434C181.198 10.4387 181.324 10.4527 181.45 10.476C181.977 10.5553 182.423 10.7397 182.787 11.029C183.156 11.3137 183.433 11.673 183.62 12.107C183.811 12.541 183.907 13.0217 183.907 13.549C183.907 14.0717 183.811 14.55 183.62 14.984C183.429 15.418 183.149 15.7797 182.78 16.069C182.416 16.3537 181.973 16.5357 181.45 16.615C181.324 16.6337 181.198 16.6477 181.072 16.657C180.951 16.6663 180.841 16.671 180.743 16.671H177.88V20.5H176.851ZM177.88 15.691H180.715C180.799 15.691 180.897 15.6863 181.009 15.677C181.121 15.6677 181.231 15.6513 181.338 15.628C181.683 15.5533 181.966 15.411 182.185 15.201C182.409 14.991 182.575 14.7413 182.682 14.452C182.794 14.1627 182.85 13.8617 182.85 13.549C182.85 13.2363 182.794 12.9353 182.682 12.646C182.575 12.352 182.409 12.1 182.185 11.89C181.966 11.68 181.683 11.5377 181.338 11.463C181.231 11.4397 181.121 11.4257 181.009 11.421C180.897 11.4117 180.799 11.407 180.715 11.407H177.88V15.691ZM185.3 20.5V10.42H186.329V14.963H191.901V10.42H192.923V20.5H191.901V15.95H186.329V20.5H185.3ZM197.285 20.5V16.279L193.904 10.42H195.094L197.803 15.103L200.498 10.42H201.688L198.321 16.279V20.5H197.285Z" fill="#D7D0FB"/>
<defs>
<clipPath id="clip0_153_2591">
<rect width="30" height="30" fill="white" transform="translate(0.5)"/>
</clipPath>
</defs>
</svg>
